<!DOCTYPE svg PUBLIC "-//W3C//DTD SVG 1.1//EN" "http://www.w3.org/Graphics/SVG/1.1/DTD/svg11.dtd">
<!-- Uploaded to: SVG Repo, www.svgrepo.com, Transformed by: SVG Repo Mixer Tools -->
<svg width="64px" height="64px" viewBox="0 0 512 512" id="Layer_1" version="1.1" xml:space="preserve" xmlns="http://www.w3.org/2000/svg" xmlns:xlink="http://www.w3.org/1999/xlink" fill="#000000">
<g id="SVGRepo_bgCarrier" stroke-width="0"/>
<g id="SVGRepo_tracerCarrier" stroke-linecap="round" stroke-linejoin="round"/>
<g id="SVGRepo_iconCarrier"> <g id="_x30_17_Shoping_World"> <g> <g> <g> <g> <ellipse cx="322.535" cy="299.061" rx="185.428" ry="185.427" style="fill:#A5E1FB;" transform="matrix(0.7071 -0.7071 0.7071 0.7071 -116.9999 315.6595)"/> </g> <g> <path d="M491.13,376.322c-42.638,93.074-152.74,133.996-245.814,91.357 c-37.057-17.027-65.889-44.713-84.418-77.765c13.522,12.019,29.046,22.321,46.36,30.262 c93.074,42.638,203.174,1.717,245.812-91.357c25.612-56.016,21.034-118.114-6.939-168.049 C505.224,213.568,525.828,300.561,491.13,376.322z" style="fill:#7AD2FA;"/> </g> <g> <path d="M484.189,208.259c-13.52-12.019-29.046-22.321-46.358-30.262 c-93.074-42.638-203.174-1.717-245.812,91.357c-25.612,56.016-21.034,118.114,6.938,168.049 c-59.091-52.797-79.695-139.79-44.998-215.552c42.638-93.074,152.738-133.995,245.812-91.357 C436.828,147.521,465.661,175.207,484.189,208.259z" style="fill:#D4F0FC;"/> </g> <g> <path d="M335.447,307.647c13.048-13.319,37.122-14.329,51.339-1.589 c6.538,5.681,10.819,13.868,17.656,19.635c6.739,5.819,17.66,8.634,24.237,2.92c6.653-6.259,4.501-17.636,0.221-25.823 c-4.303-8.113-10.089-16.408-9.221-25.624c1.161-12.205,15.472-20.065,27.623-17.868c11.924,2.132,21.385,11.726,27.743,22.533 c6.22,10.443,10.016,22.293,15.274,33.268c3.515,6.916,8.236,13.854,14.66,17.398c-1.132,5.904-2.529,11.893-4.225,17.797 c-10.628,36.988-31.692,68.067-59.203,90.901c-5.515-4.74-10.269-11.282-14.094-16.831 c-6.235-8.425-11.165-18.012-14.75-27.779c-2.499-7.352-4.483-14.798-8.724-21.436c-8.609-13.395-27.3-19.574-42.133-13.563 c-4.753,1.627-9.277,4.696-14.327,4.539c-5.052-0.157-9.511-3.218-13.019-7.057 C321.84,345.155,322.089,321.201,335.447,307.647z" style="fill:#7BDE9E;"/> </g> <g> <path d="M504.976,332.496c-1.124,5.917-2.509,11.91-4.231,17.789 c-10.636,37.001-31.684,68.086-59.21,90.894c-5.505-4.719-10.261-11.273-14.082-16.815 c-6.217-8.427-11.16-18.014-14.756-27.789c-0.936-2.809-1.798-5.58-2.771-8.352c17.714-16.253,32.508-36.215,43.144-59.397 c8.352-18.239,13.482-37.114,15.617-55.99c2.396,2.771,4.494,5.843,6.366,8.989c6.217,10.448,9.999,22.283,15.28,33.256 C493.853,322.01,498.572,328.939,504.976,332.496z" style="fill:#51D27F;"/> </g> <g> <path d="M152.575,373.254c2.349-0.591,4.738-1.423,6.929-2.54c8.411-4.179,14.487-11.858,20.288-19.26 c5.726-7.391,11.877-15.081,20.402-19.042c8.523-3.96,20.164-2.886,25.569,4.79c9.042,13.024-5.318,32.49,2.499,46.25 c11.35,4.341,23.778-11.767,34.598-6.245c6.481,3.346,7.277,12.269,6.565,19.531c-0.789,7.275-1.889,15.618,3.091,21 c5.103,5.677,14.356,4.988,21.357,1.887c6.992-3.178,13.153-8.197,20.559-10.18c12.389-3.364,26.149,2.894,33.762,13.224 c7.691,10.319,10.052,23.88,8.998,36.698c-0.581,7.086-1.709,14.725-3.527,22.47c-1.141,0.251-2.295,0.425-3.448,0.599 C265.343,495.249,185.298,448.359,152.575,373.254z" style="fill:#7BDE9E;"/> </g> <g> <path d="M198.852,437.209c-19.549-17.49-35.503-39.211-46.289-63.966 c2.359-0.562,4.756-1.423,6.928-2.546c6.366-3.146,11.385-8.314,15.992-13.857 C177.093,385.115,185.145,412.641,198.852,437.209z" style="fill:#A7EABF;"/> </g> <g> <path d="M198.852,437.209c-0.524-0.487-1.049-0.936-1.573-1.461c0.524,0.525,1.011,0.974,1.535,1.386 C198.814,437.209,198.852,437.209,198.852,437.209z" style="fill:#FCB0B0;"/> </g> <g> <path d="M357.195,459.38c-0.599,7.078-1.723,14.718-3.521,22.471c-1.161,0.225-2.322,0.412-3.446,0.599 c-56.888,8.576-111.604-9.662-151.376-45.241c0,0-0.037,0-0.037-0.075c-5.093-9.138-9.4-18.688-12.883-28.5 c6.778,4.27,13.857,8.127,21.309,11.535c46.814,21.459,97.934,21.759,142.613,4.906 C356.221,435.037,358.168,447.508,357.195,459.38z" style="fill:#51D27F;"/> </g> <g> <path d="M137.853,282.656c6.144-69.324,51.363-131.385,118.932-156.928 c-0.475,2.387-0.853,4.829-1.007,7.209c-1.366,17.95,8.67,36.319,24.611,44.766c3.495,1.863,7.281,3.324,10.633,5.549 c9.501,6.424,13.855,19.661,9.97,30.481c-3.961,10.841-15.714,18.256-27.17,17.044c-8.036-0.779-15.133-5.202-22.576-8.24 c-7.424-2.963-16.605-4.395-23.021,0.428c-5.973,4.379-7.707,12.755-6.9,20.112c0.884,7.336,3.777,14.362,5.207,21.629 c1.428,7.267,1.105,15.499-3.709,21.172c-5.105,6.076-14.05,7.562-21.907,6.25c-7.782-1.333-15.049-4.902-22.65-7.333 c-10.355-3.368-21.452-4.437-32.292-3.399C143.225,281.666,140.519,282.085,137.853,282.656z" style="fill:#7BDE9E;"/> </g> <g> <path d="M282.143,178.611c-38.5,17.939-71.044,49.136-90.107,90.744 c-2.696,5.88-5.055,11.835-7.04,17.827c-2.247-0.824-4.457-1.685-6.741-2.397c-10.337-3.371-21.422-4.419-32.283-3.371 c-2.734,0.262-5.468,0.674-8.127,1.236c6.142-69.322,51.383-131.378,118.944-156.919c-0.487,2.397-0.861,4.831-1.011,7.191 c-1.348,17.976,8.689,36.327,24.606,44.791C280.944,178.011,281.544,178.311,282.143,178.611z" style="fill:#A7EABF;"/> </g> </g> <g> <g> <path d="M462.004,81.801c0,53.728-77.802,152.102-77.802,152.102S306.4,135.53,306.4,81.801 c0-42.973,34.829-77.802,77.802-77.802S462.004,38.828,462.004,81.801z" style="fill:#FC8A8A;"/> </g> <g> <path d="M386.544,36.455c0,34.078-31.292,86.073-54.182,119.594 c-14.274-25.891-25.976-53.41-25.976-74.243c0-41.408,32.363-75.229,73.128-77.672 C384.058,13.994,386.544,24.925,386.544,36.455z" style="fill:#FCB0B0;"/> </g> <g> <path d="M461.986,81.807c0,53.71-77.8,152.085-77.8,152.085s-8.188-10.33-19.203-26.105 c17.275-22.933,72.785-100.133,72.785-145.484c0-18.903-6.687-36.178-17.917-49.638 C444.883,25.568,461.986,51.672,461.986,81.807z" style="fill:#F96364;"/> </g> <g> <path d="M434.253,81.801c0,27.648-22.403,50.051-50.051,50.051c-27.648,0-50.079-22.403-50.079-50.051 s22.431-50.078,50.079-50.078S434.253,54.153,434.253,81.801z" style="fill:#FFFFFF;"/> </g> <g> <path d="M434.244,81.804c0,27.641-22.4,50.04-50.04,50.04c-21.76,0-40.32-13.88-47.2-33.32 c8,5.36,17.6,8.52,28,8.52c27.64,0,50.041-22.4,50.041-50.08c0-5.88-1-11.479-2.84-16.68 C425.484,49.284,434.244,64.524,434.244,81.804z" style="fill:#EDEDED;"/> </g> <g> <path d="M384.203,135.853c-29.821,0-54.079-24.246-54.079-54.051c0-29.821,24.258-54.079,54.079-54.079 c29.805,0,54.051,24.258,54.051,54.079C438.255,111.607,414.008,135.853,384.203,135.853z M384.203,35.724 c-25.406,0-46.078,20.672-46.078,46.078c0,25.391,20.672,46.051,46.078,46.051c25.391,0,46.051-20.66,46.051-46.051 C430.254,56.396,409.594,35.724,384.203,35.724z" style="fill:#333333;"/> </g> </g> </g> <g> <g> <g> <path d="M236.598,507.999H18.237c-8.653,0-15.297-7.678-14.078-16.271l29.314-202.881 c1.036-7.008,7.008-12.189,14.139-12.189h159.672c7.07,0,13.102,5.181,14.078,12.189l29.314,202.881 C251.956,500.321,245.252,507.999,236.598,507.999z" style="fill:#FEDD8E;"/> </g> <g> <path d="M66.68,276.649c-7.137,0-13.108,5.186-14.155,12.204L23.216,491.731 c-1.213,8.588,5.424,16.272,14.083,16.272H18.243c-8.659,0-15.297-7.684-14.083-16.272l29.309-202.878 c1.047-7.018,7.018-12.204,14.155-12.204H66.68z" style="fill:#FEE9B4;"/> </g> <g> <path d="M188.171,276.649c7.137,0,13.108,5.186,14.155,12.204l29.309,202.878 c1.213,8.588-5.424,16.272-14.083,16.272h19.056c8.659,0,15.297-7.684,14.083-16.272l-29.309-202.878 c-1.047-7.018-7.018-12.204-14.155-12.204H188.171z" style="fill:#FDD367;"/> </g> </g> <g> <g> <g> <path d="M56.649,310.442c0-9.443,7.691-17.058,17.058-17.058c9.443,0,17.134,7.615,17.134,17.058 S83.15,327.5,73.707,327.5C64.34,327.5,56.649,319.885,56.649,310.442z" style="fill:#FDD367;"/> </g> <g> <path d="M164.006,310.442c0-9.443,7.691-17.058,17.058-17.058c9.443,0,17.134,7.615,17.134,17.058 s-7.691,17.058-17.134,17.058C171.698,327.5,164.006,319.885,164.006,310.442z" style="fill:#FDD367;"/> </g> </g> <g> <g> <g> <path d="M188.961,261.693v47.508c0,4.331-3.534,7.826-7.864,7.826c-4.332,0-7.865-3.495-7.865-7.826 v-47.508c0-12.271-4.749-23.782-13.411-32.406c-8.624-8.662-20.136-13.449-32.407-13.449 c-25.264,0-45.818,20.591-45.818,45.855v47.508c0,4.331-3.533,7.826-7.826,7.826c-4.332,0-7.864-3.495-7.864-7.826v-47.508 c0-33.926,27.582-61.546,61.508-61.546c16.489,0,31.913,6.383,43.501,18.046C182.54,229.743,188.961,245.205,188.961,261.693 z" style="fill:#FFFFFF;"/> <path d="M442.465,152.628c13.189-24.786,23.539-50.652,23.539-70.826 c0-45.106-36.696-81.801-81.801-81.801c-45.106,0-81.802,36.696-81.802,81.801c0,8.62,1.897,18.283,5.089,28.454 c-34.143,2.657-67.024,14.53-95.539,35.038c-22.082,15.879-40.066,35.906-53.301,58.753 c-9.459-5.15-20.121-7.901-31.234-7.901c-36.121,0-65.508,29.403-65.508,65.547v10.965H47.61 c-9.149,0-16.758,6.563-18.094,15.617L0.197,491.163c-0.746,5.254,0.82,10.563,4.293,14.563 c3.461,3.988,8.473,6.273,13.746,6.273h218.361c5.317,0,10.356-2.309,13.824-6.336c3.453-4.008,4.988-9.301,4.211-14.508 l-2.332-16.142c12.659,5.027,25.931,8.771,39.696,11.021c10.332,1.688,20.672,2.52,30.938,2.52 c39.344,0,77.614-12.254,110.196-35.684c41.086-29.547,68.204-73.313,76.364-123.243 C520.769,260.602,492.979,194.119,442.465,152.628z M384.203,8.001c40.696,0,73.801,33.106,73.801,73.801 c0,45.653-59.348,126.532-73.801,145.548c-14.453-19.016-73.801-99.895-73.801-145.548 C310.402,41.106,343.508,8.001,384.203,8.001z M251.849,132.096c-0.014,0.17-0.05,0.368-0.061,0.535 c-1.48,19.496,9.512,39.485,26.719,48.598c1.305,0.695,2.645,1.34,3.992,1.984c2.262,1.078,4.395,2.098,6.285,3.352 c7.988,5.402,11.699,16.742,8.449,25.797c-3.328,9.109-13.438,15.438-23.024,14.434c-5.156-0.5-10.035-2.77-15.207-5.176 c-2.074-0.965-4.145-1.926-6.274-2.797c-6.254-2.492-18.07-5.695-26.871,0.914c-6.442,4.727-9.621,13.617-8.508,23.821 c0.551,4.551,1.797,8.914,3,13.129c0.867,3.027,1.684,5.891,2.254,8.793c0.694,3.53,1.287,9.478-0.828,14.429 c-3.357-4.406-8.638-7.249-14.493-7.249h-14.324v-10.965c0-17.567-6.828-34.024-19.207-46.321 c-2.565-2.581-5.346-4.86-8.242-6.947C185.363,174.138,215.855,147.389,251.849,132.096z M69.908,261.694 c0-31.731,25.797-57.547,57.508-57.547c15.414,0,29.856,5.988,40.68,16.887c10.875,10.797,16.863,25.238,16.863,40.66v47.508 c0,2.109-1.734,3.824-3.863,3.824s-3.863-1.715-3.863-3.824v-47.508c0-13.356-5.18-25.871-14.574-35.227 c-9.391-9.434-21.906-14.629-35.242-14.629c-27.473,0-49.821,22.363-49.821,49.856v47.508c0,2.109-1.715,3.824-3.824,3.824 c-2.129,0-3.863-1.715-3.863-3.824v-47.508H69.908z M143.487,269.827c2.273-13.916,6.262-27.099,11.434-39.597 c0.702,0.618,1.412,1.225,2.078,1.894c7.891,7.856,12.234,18.356,12.234,29.571v10.965h-26.135 C143.223,271.716,143.332,270.772,143.487,269.827z M135.588,268.538c-0.224,1.374-0.388,2.747-0.571,4.121H85.595v-10.965 c0-23.078,18.762-41.856,41.821-41.856c7.411,0,14.5,1.949,20.748,5.542C142.383,239.08,138.048,253.491,135.588,268.538z M244.362,500.442c-1.949,2.262-4.781,3.559-7.766,3.559H18.235c-2.957,0-5.762-1.281-7.703-3.516 c-1.953-2.25-2.836-5.238-2.418-8.188l29.317-202.865c0.75-5.086,5.031-8.774,10.18-8.774h14.297v28.543 c0,6.52,5.32,11.824,11.863,11.824c6.52,0,11.824-5.305,11.824-11.824v-28.543h83.637v28.543 c0,6.52,5.32,11.824,11.863,11.824c6.543,0,11.863-5.305,11.863-11.824v-28.543h14.324c5.074,0,9.422,3.758,10.121,8.758 l29.313,202.9C247.155,495.239,246.296,498.2,244.362,500.442z M353.203,459.039c-0.535,6.536-1.572,13.028-2.946,19.378 c-18.646,2.863-37.819,2.849-56.972-0.281c-14.893-2.433-29.045-6.664-42.321-12.372l-11.401-78.913 c2.6-0.871,5.123-2.024,7.511-3.161c6.34-3.02,10.434-4.727,13.949-2.93c5.113,2.641,4.793,11.778,4.422,15.547l-0.078,0.703 c-0.82,7.531-1.844,16.902,4.172,23.399c6.813,7.59,18.246,6.293,25.985,2.855c2.859-1.297,5.539-2.855,8.129-4.364 c3.988-2.316,7.754-4.504,11.824-5.598c10.07-2.727,22.469,2.207,29.508,11.758 C351.383,433.645,354.301,445.711,353.203,459.039z M441.776,435.812c-4.037-4.019-7.701-8.897-11.103-13.827 c-5.684-7.684-10.598-16.946-14.18-26.688c-0.438-1.293-0.863-2.594-1.285-3.891c-2.016-6.156-4.094-12.528-7.859-18.422 c-9.766-15.195-30.41-21.821-46.793-15.184c-1.574,0.539-3.125,1.223-4.672,1.906c-2.91,1.289-5.777,2.535-8.234,2.418 c-4.191-0.129-7.855-3.199-10.188-5.746c-11.359-12.484-10.969-33.942,0.848-45.93c11.586-11.844,33.418-12.508,45.856-1.371 c2.898,2.52,5.367,5.652,7.984,8.969c2.898,3.68,5.895,7.484,9.68,10.676c7.98,6.891,21.02,10.25,29.594,2.805 c8.418-7.922,5.813-21.43,1.012-30.613c-0.711-1.332-1.457-2.672-2.207-4.02c-3.691-6.613-7.176-12.863-6.566-19.348 c0.367-3.836,2.547-7.449,6.141-10.172c4.719-3.578,11.16-5.172,16.797-4.137c12.512,2.234,21.031,13.879,25.008,20.641 c3.73,6.254,6.652,13.281,9.484,20.078c1.766,4.242,3.594,8.633,5.664,12.953c4.11,8.096,8.618,13.823,13.707,17.443 C492.617,374.092,472.13,409.437,441.776,435.812z M502.013,325.096c-2.842-2.869-5.557-6.75-8.086-11.726 c-1.938-4.051-3.723-8.34-5.453-12.488c-2.938-7.055-5.973-14.352-9.981-21.078c-8.051-13.688-18.879-22.367-30.481-24.442 c-7.883-1.422-16.504,0.676-23.039,5.633c-5.402,4.094-8.695,9.703-9.273,15.797c-0.844,8.965,3.609,16.953,7.539,24 c0.727,1.297,1.445,2.586,2.117,3.848c3.77,7.211,5.41,16.52,0.699,20.953c-4.801,4.168-13.602,1.73-19.035-2.957 c-3.195-2.695-5.816-6.02-8.59-9.539c-2.73-3.465-5.551-7.047-8.977-10.02c-15.633-14.016-42.215-13.192-56.852,1.762 c-14.641,14.856-15.133,41.453-1.051,56.93c4.844,5.293,10.324,8.184,15.848,8.355c4.414,0.051,8.293-1.586,11.719-3.102 c1.34-0.594,2.672-1.188,4.238-1.73c12.91-5.234,29.637,0.148,37.258,12.008c3.207,5.027,5.043,10.645,6.988,16.59 c0.434,1.328,0.867,2.656,1.352,4.074c3.926,10.688,9.067,20.371,15.211,28.668c3.421,4.964,7.201,9.973,11.467,14.314 c-2.339,1.86-4.731,3.671-7.174,5.428c-21.208,15.25-44.939,25.507-69.79,30.547c1.121-5.676,2.034-11.424,2.512-17.226 c1.254-15.274-2.219-29.27-9.77-39.395c-9.047-12.285-24.672-18.344-38.016-14.719c-5.09,1.363-9.5,3.926-13.762,6.406 c-2.531,1.473-4.926,2.863-7.383,3.98c-5.68,2.516-13.059,3.215-16.801-0.949c-3.578-3.867-2.84-10.613-2.129-17.137 l0.082-0.754c1.148-11.645-1.945-19.985-8.727-23.485c-7.293-3.727-14.594-0.246-21.039,2.82 c-1.791,0.853-3.542,1.67-5.237,2.33l-12.985-89.875c0.146-0.158,0.322-0.286,0.461-0.451 c4.922-5.805,6.551-14.52,4.582-24.535c-0.637-3.23-1.539-6.391-2.41-9.441c-1.172-4.098-2.277-7.969-2.746-11.848 c-0.617-5.625,0.453-12.902,5.328-16.481c5.926-4.453,15.352-1.422,19.106,0.078c1.98,0.809,3.938,1.723,5.895,2.633 c5.555,2.582,11.293,5.254,17.774,5.879c13.254,1.422,26.746-7.043,31.356-19.668c4.508-12.563-0.434-27.668-11.52-35.164 c-2.387-1.586-4.879-2.773-7.289-3.926c-1.238-0.594-2.477-1.184-3.688-1.828c-14.492-7.676-23.742-24.508-22.492-40.969 c0.088-1.35,0.297-2.851,0.561-4.432c15.837-5.811,32.588-9.485,49.857-10.663c19.338,52.682,68.306,115.03,70.88,118.283 c0.758,0.961,1.914,1.52,3.137,1.52s2.379-0.559,3.137-1.52c1.906-2.409,29.276-37.237,51.202-76.542 C485.386,198.98,511.356,260.693,502.013,325.096z" style="fill:#333333;"/> </g> </g> </g> </g> </g> </g> </g> </g>
</svg>